<svg xmlns="http://www.w3.org/2000/svg" viewBox="0 0 192 192" width="192" height="192">
  <defs>
    <linearGradient id="bg192" x1="0%" y1="0%" x2="100%" y2="100%">
      <stop offset="0%" stop-color="#0f172a"/>
      <stop offset="100%" stop-color="#022c22"/>
    </linearGradient>
    <linearGradient id="em192" x1="0%" y1="0%" x2="100%" y2="100%">
      <stop offset="0%" stop-color="#34d399"/>
      <stop offset="100%" stop-color="#059669"/>
    </linearGradient>
  </defs>
  <rect width="192" height="192" rx="40" fill="url(#bg192)"/>
  <circle cx="96" cy="96" r="70" fill="none" stroke="#1e293b" stroke-width="10"/>
  <circle cx="96" cy="96" r="70" fill="none" stroke="url(#em192)" stroke-width="10" stroke-linecap="round" stroke-dasharray="300" stroke-dashoffset="80" transform="rotate(-90 96 96)"/>
  <g transform="translate(56, 56) scale(0.42)">
    <rect x="20" y="40" width="12" height="120" rx="6" fill="#38bdf8"/>
    <rect x="44" y="40" width="6" height="120" rx="3" fill="#94a3b8"/>
    <rect x="62" y="40" width="18" height="120" rx="6" fill="#38bdf8"/>
    <rect x="92" y="40" width="8" height="120" rx="4" fill="#94a3b8"/>
    <rect x="112" y="40" width="16" height="120" rx="6" fill="#34d399"/>
    <rect x="140" y="40" width="8" height="120" rx="4" fill="#94a3b8"/>
    <rect x="160" y="20" width="20" height="140" rx="6" fill="#34d399"/>
    <line x1="0" y1="100" x2="200" y2="100" stroke="#f43f5e" stroke-width="8" stroke-linecap="round"/>
  </g>
</svg>
